<?xml version="1.0" encoding="utf-8"?>
<!-- Generator: Adobe Illustrator 23.0.3, SVG Export Plug-In . SVG Version: 6.00 Build 0)  -->
<svg version="1.1" id="Layer_1" xmlns="http://www.w3.org/2000/svg" xmlns:xlink="http://www.w3.org/1999/xlink" x="0px" y="0px"
	 viewBox="0 0 1920 1080" style="enable-background:new 0 0 1920 1080;" xml:space="preserve">
<style type="text/css">
	.st0{fill:#D5F2FF;}
	.st1{opacity:0.3;fill:#FFFFFF;}
</style>
<path class="st0" d="M1333,526H578c-61.3,0-111-49.7-111-111v0c0-61.3,49.7-111,111-111h755c61.3,0,111,49.7,111,111v0
	C1444,476.3,1394.3,526,1333,526z"/>
<path class="st1" d="M578,326h755c53.34,0,97.15,41.56,100.75,94c0.16-2.31,0.25-4.65,0.25-7c0-55.69-45.31-101-101-101H578
	c-55.69,0-101,45.31-101,101c0,2.35,0.09,4.69,0.25,7C480.85,367.56,524.66,326,578,326z"/>
</svg>
